<svg width="205" height="68" viewBox="0 0 205 68" fill="none" xmlns="http://www.w3.org/2000/svg">
<path d="M67.1279 67.3977V36.2317H75.496C79.3861 43.1959 86.5785 55.8622 88.0239 59.2543H88.1138C87.7508 55.997 87.7508 50.5681 87.7508 45.4574V36.2283H93.8574V67.3942H85.9423C82.595 61.2876 74.635 46.8129 73.0513 43.1959H72.9614C73.1861 45.9103 73.2795 52.3351 73.2795 57.8954V67.3942H67.1279V67.3977Z" fill="#0092AD"/>
<path d="M87.7786 67.3977V36.2317H96.1467C100.037 43.1959 107.229 55.8622 108.675 59.2543H108.764C108.401 55.997 108.401 50.5681 108.401 45.4574V36.2283H114.508V67.3942H106.593C103.246 61.2876 95.2856 46.8129 93.7019 43.1959H93.612C93.8368 45.9103 93.9302 52.3351 93.9302 57.8954V67.3942H87.7786V67.3977Z" fill="#0092AD"/>
<path d="M143.416 53.9603H128.488V61.8754H144.955L144.142 67.3942H121.932V36.2283H144.052V41.7471H128.492V48.3966H143.419V53.9603H143.416Z" fill="#0092AD"/>
<path d="M176.708 57.7606C175.488 63.594 171.1 67.8472 163.275 67.8472C153.368 67.8472 148.71 60.8346 148.71 51.9721C148.71 43.1095 153.551 35.7788 163.593 35.7788C171.916 35.7788 175.941 40.6198 176.712 45.8655H169.972C169.295 43.4242 167.621 41.0244 163.368 41.0244C157.804 41.0244 155.678 46.0453 155.678 51.7439C155.678 56.9895 157.531 62.5532 163.548 62.5532C167.981 62.5532 169.336 59.614 169.924 57.7571H176.708V57.7606Z" fill="#0092AD"/>
<path d="M188.697 41.7505H179.198V36.2317H204.89V41.7505H195.436V67.3976H188.697V41.7505Z" fill="#0092AD"/>
<path d="M47.539 35.7789C42.8259 35.7789 39.3507 37.079 36.4496 40.1704C36.3562 40.2603 36.2628 40.3606 36.1695 40.4712C36.1384 40.5092 36.1038 40.5473 36.0727 40.5853C35.9655 40.7063 35.8617 40.8308 35.7615 40.9553C32.1549 45.2535 19.831 60.4509 19.831 60.4509L20.0177 60.5857C19.9313 60.5684 19.8483 60.5477 19.7653 60.5269C18.804 61.6508 17.2963 62.5533 14.8378 62.5533C8.82106 62.5533 6.96765 56.9895 6.96765 51.7439C6.96765 46.0453 9.09425 41.0245 14.658 41.0245C18.9112 41.0245 20.5848 43.4208 21.2625 45.8655H28.002C27.2343 40.6199 23.2059 35.7789 14.8827 35.7789C4.84103 35.7789 0 43.4242 0 51.9721C0 60.52 4.65777 67.8473 14.5646 67.8473C19.3088 67.8473 22.7875 66.2809 25.0662 63.7497C27.6493 61.2808 39.7553 45.8897 41.2837 43.9429C41.4186 43.7804 41.384 43.815 41.5638 43.6075C42.8743 42.1172 44.752 41.2492 47.2693 41.2492C53.0578 41.2492 55.5025 45.862 55.5025 51.7889C55.5025 57.3526 53.3759 62.3734 47.3592 62.3734C42.4214 62.3734 39.7657 58.677 39.2608 53.5247C38.4344 54.2371 33.8043 58.7738 33.462 58.9259C35.5298 64.2407 40.1357 67.8473 47.131 67.8473C57.2626 67.8473 62.4633 60.3852 62.4633 51.699C62.4633 42.1552 56.6747 35.7754 47.5356 35.7754L47.539 35.7789Z" fill="#F09B1C"/>
<path d="M43.2996 23.2025C42.7117 28.1784 39.9074 33.0194 30.0006 33.0194C20.0937 33.0194 16.5217 26.9578 16.5217 20.6264C16.5217 13.2991 21.0896 7.69043 30.3187 7.69043C40.6301 7.69043 43.0299 13.9769 43.2996 17.3691H32.0822C32.0822 15.9686 31.8574 14.3849 30.6783 14.3849C29.3678 14.3849 29.0047 15.9237 29.0047 20.1734C29.0047 24.9695 29.4127 26.4149 30.5435 26.4149C31.809 26.4149 32.0372 24.8761 32.2171 23.2025H43.2996Z" fill="#95BD15"/>
<path d="M72.8368 23.4307C72.8368 25.2392 72.8368 30.1252 72.8818 32.3867H61.0316C60.8967 31.9337 60.8518 30.4883 60.8518 29.9454C59.1781 32.072 57.1415 33.0644 53.8876 33.0644C48.5936 33.0644 46.2422 30.0353 46.2422 24.4716V8.32324H58.2756V22.8879C58.2756 24.4266 58.5938 25.0594 59.4963 25.0594C60.4921 25.0594 60.7618 24.3367 60.7618 22.4349V8.32324H72.8403V23.4307H72.8368Z" fill="#E23F38"/>
<path d="M76.7268 32.3866V0H88.8052V32.3866H76.7268Z" fill="#0092AD"/>
<path d="M91.6548 8.32309H94.8672V2.35132H106.672V8.32309H110.244V15.5604H106.672V23.9735C106.672 25.0593 106.991 25.5572 108.754 25.5572C109.117 25.5572 109.252 25.5572 109.75 25.5122V32.1618C108.349 32.6147 105.227 32.8845 103.553 32.8845C96.4509 32.8845 94.7323 29.8553 94.7323 24.7895V15.5604H91.6582V8.32309H91.6548Z" fill="#95BD15"/>
<path d="M139.65 23.4307C139.65 25.2392 139.65 30.1252 139.695 32.3867H127.845C127.71 31.9337 127.665 30.4883 127.665 29.9454C125.991 32.072 123.955 33.0644 120.701 33.0644C115.407 33.0644 113.055 30.0353 113.055 24.4716V8.32324H125.089V22.8879C125.089 24.4266 125.407 25.0594 126.31 25.0594C127.305 25.0594 127.575 24.3367 127.575 22.4349V8.32324H139.653V23.4307H139.65Z" fill="#0092AD"/>
<path d="M143.54 15.92C143.54 13.3854 143.495 10.4012 143.45 8.3196H155.21C155.345 9.49528 155.484 10.8992 155.484 11.9365C156.251 10.218 158.288 7.77325 162.448 7.68335V18.2679C156.929 17.9982 155.619 19.3987 155.619 23.109V32.383H143.54V15.9166V15.92Z" fill="#F09B1C"/>
<path d="M190.038 23.9736C190.038 27.4108 190.083 31.1211 190.263 32.3867H179.544C179.364 31.8438 179.181 30.9827 179.091 30.0802C177.462 31.9337 175.335 33.0194 171.988 33.0194C167.375 33.0194 163.62 30.4399 163.62 25.1942C163.62 19.2674 168.323 17.006 176.241 17.006H178.593V15.6954C178.593 14.295 178.14 13.7971 177.099 13.7971C176.058 13.7971 175.605 14.5647 175.515 15.8338H164.706C164.931 12.6663 166.604 7.69043 177.234 7.69043C187.863 7.69043 190.035 11.6255 190.035 17.4624V23.9771L190.038 23.9736ZM178.596 21.892H177.465C175.747 21.892 175.159 22.753 175.159 23.9736C175.159 25.1043 175.837 25.7821 176.743 25.7821C178.237 25.7821 178.596 24.8761 178.596 22.8878V21.892Z" fill="#E23F38"/>
<path d="M193.479 32.3415V20.6711H204.472V32.3415H193.479Z" fill="#F09B1C"/>
</svg>
